# xmcd database file
#
# Track frame offsets:
# 150
# 12921
# 27444
# 50290
# 76255
# 95414
# 109226
# 128697
# 151120
# 170532
#
# Disc length: 2456 seconds
#
# Revision: 5
# Processed by: cddbd v1.5.1PL0 Copyright (c) Steve Scherf et al.
# Submitted via: CD-Runner 2004.04
#
DISCID=6e09960a
DTITLE=Rob Cannillo - The Long Road Home
DYEAR=2003
DGENRE=Acoustic
TTITLE0=Love Struggle
TTITLE1=Love in Your Eyes
TTITLE2=Move Yourself to Love
TTITLE3=Lone Wolf
TTITLE4=Baby Hold On
TTITLE5=Glorious Winners
TTITLE6=One More Ride
TTITLE7=Sara
TTITLE8=Rusty Old Nail
TTITLE9=Lullaby for Sara, Emily and Stephen
EXTD=
EXTT0=
EXTT1=
EXTT2=
EXTT3=
EXTT4=
EXTT5=
EXTT6=
EXTT7=
EXTT8=
EXTT9=
PLAYORDER=
